<svg width="20" height="20" viewBox="0 0 20 20" fill="none" xmlns="http://www.w3.org/2000/svg">
<path fill-rule="evenodd" clip-rule="evenodd" d="M14.6509 4.47H14.8665C17.7002 4.47 20 6.72 20 9.48V15C20 17.76 17.7002 20 14.8665 20H5.13347C2.29979 20 0 17.76 0 15V9.48C0 6.72 2.29979 4.47 5.13347 4.47H5.34908C5.36961 3.27 5.85216 2.15 6.72485 1.31C7.6078 0.46 8.73717 0.03 10.0103 0C12.5565 0 14.6201 2 14.6509 4.47ZM7.80289 2.38C7.22794 2.94 6.90967 3.68 6.88913 4.47H13.1109C13.0801 2.83 11.7043 1.5 10.0103 1.5C9.21973 1.5 8.39837 1.81 7.80289 2.38ZM13.9014 8.32C14.3326 8.32 14.6714 7.98 14.6714 7.57V6.41C14.6714 6 14.3326 5.66 13.9014 5.66C13.4805 5.66 13.1314 6 13.1314 6.41V7.57C13.1314 7.98 13.4805 8.32 13.9014 8.32ZM6.77615 7.57C6.77615 7.98 6.43735 8.32 6.00613 8.32C5.58519 8.32 5.23611 7.98 5.23611 7.57V6.41C5.23611 6 5.58519 5.66 6.00613 5.66C6.43735 5.66 6.77615 6 6.77615 6.41V7.57Z" fill="#141B22"/>
</svg>
