<svg width="28" height="20" viewBox="0 0 28 20" fill="none" xmlns="http://www.w3.org/2000/svg">
<path d="M23.638 2.18582C21.3305 0.328938 17.6801 0.0141738 17.5239 0.00285089C17.2816 -0.0175294 17.0506 0.11834 16.951 0.342525C16.9419 0.356112 16.8626 0.539536 16.7743 0.824862C18.3006 1.08301 20.1756 1.60158 21.8717 2.65457C22.1434 2.82214 22.2272 3.17993 22.0597 3.45167C21.9487 3.63057 21.7607 3.72794 21.566 3.72794C21.4618 3.72794 21.3554 3.6985 21.2603 3.63963C18.3436 1.8303 14.7023 1.73972 14.0003 1.73972C13.2983 1.73972 9.65476 1.8303 6.74036 3.63963C6.46862 3.80946 6.11083 3.72568 5.94326 3.45394C5.77342 3.17993 5.85721 2.82441 6.12895 2.65457C7.82505 1.60385 9.70005 1.08301 11.2263 0.827127C11.138 0.539536 11.0588 0.358377 11.052 0.342525C10.9501 0.11834 10.7213 -0.0220581 10.4768 0.00285089C10.3205 0.0141738 6.67016 0.328938 4.33094 2.21073C3.11038 3.34071 0.666992 9.94398 0.666992 15.6528C0.666992 15.7547 0.694166 15.852 0.743985 15.9404C2.42877 18.9023 7.02795 19.6768 8.07641 19.7107C8.08094 19.7107 8.08774 19.7107 8.09453 19.7107C8.28022 19.7107 8.45458 19.6224 8.56328 19.473L9.62306 18.0146C6.76301 17.2764 5.30241 16.0219 5.21862 15.9471C4.97859 15.7365 4.95594 15.3697 5.1688 15.1297C5.3794 14.8896 5.74625 14.867 5.98629 15.0776C6.02025 15.1093 8.71047 17.3919 14.0003 17.3919C19.2992 17.3919 21.9895 15.1002 22.0166 15.0776C22.2567 14.8692 22.6213 14.8896 22.8341 15.1319C23.0447 15.372 23.0221 15.7365 22.782 15.9471C22.6982 16.0219 21.2376 17.2764 18.3776 18.0146L19.4374 19.473C19.5461 19.6224 19.7204 19.7107 19.9061 19.7107C19.9129 19.7107 19.9197 19.7107 19.9242 19.7107C20.9727 19.6768 25.5719 18.9023 27.2567 15.9404C27.3065 15.852 27.3337 15.7547 27.3337 15.6528C27.3337 9.94398 24.8903 3.34071 23.638 2.18582ZM10.2322 13.3339C9.11129 13.3339 8.20322 12.2968 8.20322 11.0151C8.20322 9.73338 9.11129 8.69624 10.2322 8.69624C11.3531 8.69624 12.2612 9.73338 12.2612 11.0151C12.2612 12.2968 11.3531 13.3339 10.2322 13.3339ZM17.7684 13.3339C16.6475 13.3339 15.7395 12.2968 15.7395 11.0151C15.7395 9.73338 16.6475 8.69624 17.7684 8.69624C18.8894 8.69624 19.7974 9.73338 19.7974 11.0151C19.7974 12.2968 18.8894 13.3339 17.7684 13.3339Z" fill="white"/>
</svg>
