<svg width="20" height="16" viewBox="0 0 20 16" fill="none" xmlns="http://www.w3.org/2000/svg">
<path d="M17.2283 2.24783C15.4976 0.855163 12.7598 0.61909 12.6427 0.610598C12.4609 0.595312 12.2877 0.697215 12.213 0.865353C12.2062 0.875543 12.1467 1.01311 12.0805 1.22711C13.2252 1.42072 14.6315 1.80965 15.9035 2.59939C16.1073 2.72507 16.1702 2.99341 16.0445 3.19721C15.9613 3.33139 15.8203 3.40442 15.6743 3.40442C15.5961 3.40442 15.5163 3.38234 15.445 3.33818C13.2575 1.98118 10.5265 1.91325 10 1.91325C9.47351 1.91325 6.74083 1.98118 4.55503 3.33818C4.35122 3.46556 4.08288 3.40272 3.9572 3.19891C3.82982 2.99341 3.89266 2.72677 4.09647 2.59939C5.36855 1.81134 6.7748 1.42072 7.9195 1.2288C7.85326 1.01311 7.79382 0.877242 7.78872 0.865353C7.7123 0.697215 7.54076 0.591916 7.35734 0.610598C7.24015 0.61909 4.50238 0.855163 2.74796 2.26651C1.83254 3.11399 0 8.06644 0 12.348C0 12.4245 0.0203804 12.4975 0.0577448 12.5637C1.32133 14.7852 4.77072 15.366 5.55707 15.3915C5.56046 15.3915 5.56556 15.3915 5.57065 15.3915C5.70992 15.3915 5.84069 15.3253 5.92221 15.2132L6.71705 14.1194C4.57201 13.5658 3.47656 12.6249 3.41372 12.5688C3.2337 12.4109 3.21671 12.1357 3.37636 11.9557C3.53431 11.7757 3.80944 11.7587 3.98947 11.9166C4.01495 11.9404 6.03261 13.6524 10 13.6524C13.9742 13.6524 15.9918 11.9336 16.0122 11.9166C16.1923 11.7604 16.4657 11.7757 16.6253 11.9574C16.7833 12.1374 16.7663 12.4109 16.5863 12.5688C16.5234 12.6249 15.428 13.5658 13.2829 14.1194L14.0778 15.2132C14.1593 15.3253 14.2901 15.3915 14.4293 15.3915C14.4344 15.3915 14.4395 15.3915 14.4429 15.3915C15.2293 15.366 18.6787 14.7852 19.9423 12.5637C19.9796 12.4975 20 12.4245 20 12.348C20 8.06644 18.1675 3.11399 17.2283 2.24783ZM7.17391 10.6089C6.33322 10.6089 5.65217 9.83105 5.65217 8.86977C5.65217 7.90849 6.33322 7.13064 7.17391 7.13064C8.01461 7.13064 8.69565 7.90849 8.69565 8.86977C8.69565 9.83105 8.01461 10.6089 7.17391 10.6089ZM12.8261 10.6089C11.9854 10.6089 11.3043 9.83105 11.3043 8.86977C11.3043 7.90849 11.9854 7.13064 12.8261 7.13064C13.6668 7.13064 14.3478 7.90849 14.3478 8.86977C14.3478 9.83105 13.6668 10.6089 12.8261 10.6089Z" fill="white"/>
</svg>
