<svg width="20" height="20" viewBox="0 0 20 20" fill="none" xmlns="http://www.w3.org/2000/svg">
<path d="M1.66748 10.0504C1.66845 14.1751 4.64948 17.6871 8.69831 18.3335V12.4735H6.58415V10.0504H8.70081V8.20573C8.60619 7.33167 8.90292 6.46055 9.51051 5.82863C10.1181 5.19672 10.9736 4.8695 11.845 4.93573C12.4704 4.94589 13.0943 5.00194 13.7116 5.10342V7.1652H12.6583C12.2957 7.11741 11.9311 7.23791 11.6673 7.49276C11.4035 7.74761 11.269 8.10921 11.3016 8.47572V10.0504H13.6108L13.2416 12.4744H11.3016V18.3335C15.6804 17.6373 18.7509 13.6136 18.2887 9.17758C17.8266 4.74151 13.9936 1.44598 9.5665 1.67844C5.13945 1.91091 1.66818 5.58999 1.66748 10.0504Z" fill="white"/>
</svg>
