<svg width="20" height="20" viewBox="0 0 20 20" fill="none" xmlns="http://www.w3.org/2000/svg">
<g clip-path="url(#clip0_1_7864)">
<path d="M19.3309 9.85489C19.3309 15.0883 15.0883 19.3309 9.85489 19.3309C4.62145 19.3309 0.378906 15.0883 0.378906 9.85489C0.378906 4.62145 4.62145 0.378906 9.85489 0.378906C15.0883 0.378906 19.3309 4.62145 19.3309 9.85489Z" fill="#C2C3C5"/>
<path d="M8.33873 12.6983V19.142C8.33873 19.2466 8.42358 19.3315 8.52825 19.3315H11.1815C11.2862 19.3315 11.371 19.2466 11.371 19.142V12.6983C11.371 12.5936 11.4559 12.5088 11.5606 12.5088H13.4558C13.5604 12.5088 13.6453 12.4239 13.6453 12.3193V10.045C13.6453 9.94036 13.5604 9.85551 13.4558 9.85551H11.5606C11.4559 9.85551 11.371 9.77079 11.371 9.66612V7.96031C11.371 7.20224 12.3186 6.8232 12.6977 6.8232H13.8348C13.9395 6.8232 14.0243 6.73835 14.0243 6.63368V4.35944C14.0243 4.25477 13.9395 4.16992 13.8348 4.16992H11.371C9.55166 4.16992 8.33873 6.06512 8.33873 7.20224V9.66599C8.33873 9.77066 8.25388 9.85551 8.14921 9.85551H6.25401C6.14935 9.85551 6.0645 9.94036 6.0645 10.045V12.3193C6.0645 12.4239 6.14935 12.5088 6.25401 12.5088H8.14921C8.25388 12.5088 8.33873 12.5936 8.33873 12.6983Z" fill="#141B22"/>
</g>
<defs>
<clipPath id="clip0_1_7864">
<rect width="20" height="20" fill="white"/>
</clipPath>
</defs>
</svg>
