<svg width="24" height="24" viewBox="0 0 24 24" fill="none" xmlns="http://www.w3.org/2000/svg">
<path d="M0.890625 12.0676C0.891918 17.5673 4.86663 22.25 10.2651 23.1119V15.2985H7.44618V12.0676H10.2684V9.60813C10.1422 8.44271 10.5379 7.28122 11.348 6.43867C12.1581 5.59611 13.2988 5.15982 14.4606 5.24812C15.2946 5.26167 16.1264 5.3364 16.9495 5.47171V8.22076H15.5451C15.0616 8.15704 14.5755 8.31771 14.2237 8.6575C13.8719 8.9973 13.6926 9.47944 13.7362 9.96811V12.0676H16.8151L16.3228 15.2996H13.7362V23.1119C19.5745 22.1835 23.6685 16.8187 23.0523 10.9039C22.4361 4.98917 17.3254 0.59513 11.4227 0.905081C5.51992 1.21503 0.891563 6.12047 0.890625 12.0676Z" fill="white"/>
</svg>
