<svg width="20" height="20" viewBox="0 0 20 20" fill="none" xmlns="http://www.w3.org/2000/svg">
<mask id="mask0_1_8344" style="mask-type:luminance" maskUnits="userSpaceOnUse" x="1" y="1" width="18" height="17">
<path fill-rule="evenodd" clip-rule="evenodd" d="M1.6665 1.66675H17.6857V17.3323H1.6665V1.66675Z" fill="white" stroke="white"/>
</mask>
<g mask="url(#mask0_1_8344)">
<path fill-rule="evenodd" clip-rule="evenodd" d="M9.67662 2.87321C5.94011 2.87321 2.90023 5.84514 2.90023 9.49912C2.90023 13.1531 5.94011 16.1258 9.67662 16.1258C13.4123 16.1258 16.4522 13.1531 16.4522 9.49912C16.4522 5.84514 13.4123 2.87321 9.67662 2.87321ZM9.6766 17.3323C5.2599 17.3323 1.6665 13.8183 1.6665 9.49912C1.6665 5.17997 5.2599 1.66675 9.6766 1.66675C14.0933 1.66675 17.6859 5.17997 17.6859 9.49912C17.6859 13.8183 14.0933 17.3323 9.6766 17.3323Z" fill="#A9A9C2"/>
<path d="M9.67662 2.37321C5.67463 2.37321 2.40023 5.55845 2.40023 9.49912H3.40023C3.40023 6.13183 6.20558 3.37321 9.67662 3.37321V2.37321ZM2.40023 9.49912C2.40023 13.4397 5.67455 16.6258 9.67662 16.6258V15.6258C6.20566 15.6258 3.40023 12.8665 3.40023 9.49912H2.40023ZM9.67662 16.6258C13.6779 16.6258 16.9522 13.4397 16.9522 9.49912H15.9522C15.9522 12.8665 13.1467 15.6258 9.67662 15.6258V16.6258ZM16.9522 9.49912C16.9522 5.55849 13.6778 2.37321 9.67662 2.37321V3.37321C13.1468 3.37321 15.9522 6.13179 15.9522 9.49912H16.9522ZM9.6766 16.8323C5.52546 16.8323 2.1665 13.5316 2.1665 9.49912H1.1665C1.1665 14.1049 4.99435 17.8323 9.6766 17.8323V16.8323ZM2.1665 9.49912C2.1665 5.46665 5.52539 2.16675 9.6766 2.16675V1.16675C4.99442 1.16675 1.1665 4.8933 1.1665 9.49912H2.1665ZM9.6766 2.16675C13.8277 2.16675 17.1859 5.46658 17.1859 9.49912H18.1859C18.1859 4.89336 14.3589 1.16675 9.6766 1.16675V2.16675ZM17.1859 9.49912C17.1859 13.5317 13.8277 16.8323 9.6766 16.8323V17.8323C14.3589 17.8323 18.1859 14.1048 18.1859 9.49912H17.1859Z" fill="#A9A9C2"/>
</g>
<mask id="mask1_1_8344" style="mask-type:luminance" maskUnits="userSpaceOnUse" x="13" y="13" width="6" height="6">
<path fill-rule="evenodd" clip-rule="evenodd" d="M14.2012 14.3H18.3333V18.3335H14.2012V14.3Z" fill="white" stroke="white"/>
</mask>
<g mask="url(#mask1_1_8344)">
<path fill-rule="evenodd" clip-rule="evenodd" d="M17.7166 18.3335C17.5596 18.3335 17.4016 18.2747 17.2807 18.1573L14.3823 15.331C14.1413 15.0953 14.1405 14.7133 14.3815 14.4776C14.6217 14.2403 15.0123 14.2419 15.2541 14.476L18.1526 17.3031C18.3935 17.5388 18.3944 17.92 18.1534 18.1557C18.0333 18.2747 17.8746 18.3335 17.7166 18.3335Z" fill="#A9A9C2"/>
<path d="M17.7166 18.3335C17.5595 18.3335 17.4016 18.2747 17.2807 18.1573L14.3823 15.331C14.1413 15.0953 14.1405 14.7133 14.3815 14.4776C14.6217 14.2403 15.0123 14.2419 15.2541 14.476L18.1526 17.3031C18.3935 17.5388 18.3944 17.92 18.1534 18.1557C18.0333 18.2747 17.8746 18.3335 17.7166 18.3335" stroke="#A9A9C2"/>
</g>
</svg>
