<svg width="20" height="20" viewBox="0 0 20 20" fill="none" xmlns="http://www.w3.org/2000/svg">
<g clip-path="url(#clip0_1_7886)">
<path fill-rule="evenodd" clip-rule="evenodd" d="M5.87727 0.0599389C6.94364 0.010848 7.28364 -6.10352e-05 10 -6.10352e-05C12.7164 -6.10352e-05 13.0564 0.0117571 14.1218 0.0599389C15.1873 0.108121 15.9145 0.278121 16.5509 0.524484C17.2173 0.776303 17.8218 1.16994 18.3218 1.67903C18.8309 2.17812 19.2236 2.78176 19.4745 3.44903C19.7218 4.08539 19.8909 4.81267 19.94 5.8763C19.9891 6.94448 20 7.28448 20 9.99994C20 12.7163 19.9882 13.0563 19.94 14.1227C19.8918 15.1863 19.7218 15.9136 19.4745 16.5499C19.2236 17.2173 18.8303 17.8219 18.3218 18.3218C17.8218 18.8308 17.2173 19.2236 16.5509 19.4745C15.9145 19.7218 15.1873 19.8908 14.1236 19.9399C13.0564 19.989 12.7164 19.9999 10 19.9999C7.28364 19.9999 6.94364 19.9881 5.87727 19.9399C4.81364 19.8918 4.08636 19.7218 3.45 19.4745C2.78265 19.2235 2.17802 18.8302 1.67818 18.3218C1.16944 17.8224 0.775741 17.218 0.524545 16.5508C0.278182 15.9145 0.109091 15.1872 0.06 14.1236C0.0109091 13.0554 0 12.7154 0 9.99994C0 7.28358 0.0118182 6.94357 0.06 5.87812C0.108182 4.81267 0.278182 4.08539 0.524545 3.44903C0.776112 2.78183 1.17011 2.1775 1.67909 1.67812C2.17822 1.16949 2.78225 0.775797 3.44909 0.524484C4.08545 0.278121 4.81273 0.10903 5.87636 0.0599389H5.87727ZM14.0409 1.85994C12.9864 1.81176 12.67 1.80176 10 1.80176C7.33 1.80176 7.01364 1.81176 5.95909 1.85994C4.98364 1.90448 4.45455 2.06721 4.10182 2.20448C3.63545 2.3863 3.30182 2.60176 2.95182 2.95176C2.62004 3.27453 2.36471 3.66747 2.20455 4.10176C2.06727 4.45448 1.90455 4.98357 1.86 5.95903C1.81182 7.01357 1.80182 7.32994 1.80182 9.99994C1.80182 12.6699 1.81182 12.9863 1.86 14.0408C1.90455 15.0163 2.06727 15.5454 2.20455 15.8981C2.36455 16.3318 2.62 16.7254 2.95182 17.0481C3.27455 17.3799 3.66818 17.6354 4.10182 17.7954C4.45455 17.9327 4.98364 18.0954 5.95909 18.1399C7.01364 18.1881 7.32909 18.1981 10 18.1981C12.6709 18.1981 12.9864 18.1881 14.0409 18.1399C15.0164 18.0954 15.5455 17.9327 15.8982 17.7954C16.3645 17.6136 16.6982 17.3981 17.0482 17.0481C17.38 16.7254 17.6355 16.3318 17.7955 15.8981C17.9327 15.5454 18.0955 15.0163 18.14 14.0408C18.1882 12.9863 18.1982 12.6699 18.1982 9.99994C18.1982 7.32994 18.1882 7.01357 18.14 5.95903C18.0955 4.98357 17.9327 4.45448 17.7955 4.10176C17.6136 3.63539 17.3982 3.30176 17.0482 2.95176C16.7254 2.62 16.3325 2.36468 15.8982 2.20448C15.5455 2.06721 15.0164 1.90448 14.0409 1.85994ZM8.72273 13.0827C9.43605 13.3796 10.2303 13.4197 10.9699 13.196C11.7095 12.9724 12.3485 12.499 12.7778 11.8565C13.2071 11.2141 13.4 10.4425 13.3237 9.67367C13.2473 8.90479 12.9064 8.18628 12.3591 7.64085C12.0102 7.29219 11.5884 7.02522 11.1239 6.85916C10.6595 6.6931 10.164 6.63208 9.67318 6.6805C9.18233 6.72891 8.70832 6.88555 8.28528 7.13915C7.86223 7.39274 7.50068 7.73698 7.22664 8.14708C6.9526 8.55717 6.7729 9.02293 6.70047 9.51081C6.62804 9.9987 6.66468 10.4966 6.80776 10.9686C6.95084 11.4406 7.1968 11.875 7.52793 12.2406C7.85905 12.6062 8.26711 12.8937 8.72273 13.0827ZM6.36545 6.36539C6.84275 5.8881 7.40938 5.50949 8.033 5.25118C8.65661 4.99287 9.325 4.85992 10 4.85992C10.675 4.85992 11.3434 4.99287 11.967 5.25118C12.5906 5.50949 13.1572 5.8881 13.6345 6.36539C14.1118 6.84269 14.4905 7.40932 14.7488 8.03294C15.0071 8.65655 15.14 9.32494 15.14 9.99994C15.14 10.6749 15.0071 11.3433 14.7488 11.9669C14.4905 12.5906 14.1118 13.1572 13.6345 13.6345C12.6706 14.5984 11.3632 15.14 10 15.14C8.63678 15.14 7.3294 14.5984 6.36545 13.6345C5.40151 12.6705 4.85998 11.3632 4.85998 9.99994C4.85998 8.63672 5.40151 7.32933 6.36545 6.36539ZM16.28 5.62539C16.3983 5.51382 16.493 5.37965 16.5585 5.23082C16.624 5.082 16.6589 4.92155 16.6613 4.75897C16.6637 4.59639 16.6334 4.43498 16.5723 4.28431C16.5111 4.13364 16.4204 3.99677 16.3054 3.88179C16.1904 3.76682 16.0536 3.67608 15.9029 3.61495C15.7522 3.55383 15.5908 3.52355 15.4282 3.52592C15.2657 3.52829 15.1052 3.56326 14.9564 3.62875C14.8076 3.69425 14.6734 3.78893 14.5618 3.90721C14.3448 4.13724 14.226 4.44278 14.2306 4.75897C14.2352 5.07516 14.3629 5.3771 14.5865 5.6007C14.8101 5.82431 15.1121 5.95196 15.4282 5.95657C15.7444 5.96118 16.05 5.84238 16.28 5.62539Z" fill="#C2C3C5"/>
</g>
<defs>
<clipPath id="clip0_1_7886">
<rect width="20" height="20" fill="white"/>
</clipPath>
</defs>
</svg>
