<svg width="25" height="24" viewBox="0 0 25 24" fill="none" xmlns="http://www.w3.org/2000/svg">
<path d="M20.1441 6.18054C21.0012 5.64436 21.6425 4.80009 21.9483 3.80535C21.1429 4.30541 20.2618 4.65766 19.3429 4.84687C18.069 3.4367 16.0505 3.09352 14.4155 4.00911C12.7804 4.9247 11.9335 6.87238 12.348 8.76384C9.04901 8.59052 5.97544 6.95985 3.8921 4.27759C2.80485 6.23999 3.36046 8.74861 5.16182 10.0105C4.51043 9.98855 3.87348 9.804 3.30409 9.47219C3.30409 9.4902 3.30409 9.50821 3.30409 9.52622C3.30447 11.5704 4.68125 13.3312 6.59599 13.7363C5.99179 13.9083 5.35802 13.9337 4.74304 13.8104C5.28153 15.5585 6.82121 16.7561 8.57611 16.7919C7.12265 17.9856 5.32769 18.6329 3.48002 18.6298C3.15252 18.6303 2.82528 18.6106 2.5 18.5707C4.37627 19.8324 6.56002 20.5021 8.79028 20.4997C11.8931 20.522 14.875 19.242 17.069 16.946C19.263 14.6499 20.486 11.5295 20.4644 8.2826C20.4644 8.0965 20.4603 7.91141 20.452 7.72732C21.2556 7.11961 21.9491 6.36679 22.5 5.5042C21.7514 5.85144 20.9573 6.07941 20.1441 6.18054Z" fill="white"/>
</svg>
