<svg width="56" height="56" viewBox="0 0 56 56" fill="none" xmlns="http://www.w3.org/2000/svg">
<g clip-path="url(#clip0_1_9222)">
<path d="M28 0C16.422 0 7 9.48733 7 21.1517C7 37.7253 26.026 54.838 26.8357 55.5567C27.1693 55.853 27.5847 56 28 56C28.4153 56 28.8307 55.853 29.1643 55.559C29.974 54.838 49 37.7253 49 21.1517C49 9.48733 39.578 0 28 0ZM28 32.6667C21.567 32.6667 16.3333 27.433 16.3333 21C16.3333 14.567 21.567 9.33333 28 9.33333C34.433 9.33333 39.6667 14.567 39.6667 21C39.6667 27.433 34.433 32.6667 28 32.6667Z" fill="#21E786"/>
</g>
<defs>
<clipPath id="clip0_1_9222">
<rect width="56" height="56" fill="white"/>
</clipPath>
</defs>
</svg>
