<svg width="28" height="25" viewBox="0 0 28 25" fill="none" xmlns="http://www.w3.org/2000/svg">
<path d="M26.8301 0.662938C26.3752 0.281337 25.6608 0.226736 24.922 0.520137H24.9208C24.1439 0.828538 2.92852 9.83096 2.06486 10.1988C1.90778 10.2528 0.535872 10.7592 0.677187 11.8872C0.803339 12.9042 1.90596 13.3254 2.0406 13.374L7.43421 15.201C7.79204 16.3794 9.11118 20.727 9.40291 21.6558C9.58486 22.2348 9.88144 22.9956 10.4012 23.1522C10.8573 23.3262 11.311 23.1672 11.6045 22.9392L14.9021 19.9134L20.2253 24.0204L20.3521 24.0954C20.7135 24.2538 21.0599 24.333 21.3904 24.333C21.6457 24.333 21.8908 24.2856 22.1249 24.1908C22.9224 23.8668 23.2414 23.115 23.2748 23.0298L27.251 2.58354C27.4936 1.49154 27.1564 0.935938 26.8301 0.662938ZM12.191 15.9318L10.3715 20.7318L8.55199 14.7318L22.5015 4.53175L12.191 15.9318Z" fill="white"/>
</svg>
