<svg width="233" height="205" viewBox="0 0 233 205" fill="none" xmlns="http://www.w3.org/2000/svg">
<g filter="url(#filter0_f_3711_835)">
<path d="M222.195 140.93L148.81 153.287L209.45 196.448L183.74 232.569L123.1 189.408L135.458 262.794L91.7389 270.155L79.3816 196.77L36.2206 257.41L0.0993013 231.701L43.2603 171.061L-30.1249 183.418L-37.4867 139.699L35.8985 127.342L-24.7415 84.1808L0.968144 48.0595L61.6082 91.2205L49.2509 17.8353L92.9697 10.4735L105.327 83.8587L148.488 23.2187L184.609 48.9283L141.448 109.568L214.833 97.211L222.195 140.93Z" fill="url(#paint0_linear_3711_835)"/>
</g>
<defs>
<filter id="filter0_f_3711_835" x="-47.4868" y="0.473511" width="279.682" height="279.682" filterUnits="userSpaceOnUse" color-interpolation-filters="sRGB">
<feFlood flood-opacity="0" result="BackgroundImageFix"/>
<feBlend mode="normal" in="SourceGraphic" in2="BackgroundImageFix" result="shape"/>
<feGaussianBlur stdDeviation="5" result="effect1_foregroundBlur_3711_835"/>
</filter>
<linearGradient id="paint0_linear_3711_835" x1="71.1103" y1="14.1544" x2="113.598" y2="266.475" gradientUnits="userSpaceOnUse">
<stop stop-color="white" stop-opacity="0.28"/>
<stop offset="1" stop-color="white" stop-opacity="0"/>
</linearGradient>
</defs>
</svg>
