<svg width="160" height="157" viewBox="0 0 160 157" fill="none" xmlns="http://www.w3.org/2000/svg">
<g opacity="0.5" filter="url(#filter0_f_3711_834)">
<path d="M143.612 48.9554L110.417 71.0062L149.488 78.8878L144.794 102.162L105.722 94.28L127.773 127.475L107.997 140.612L85.9459 107.417L78.0643 146.488L54.7905 141.794L62.6721 102.722L29.477 124.773L16.3403 104.997L49.5354 82.946L10.4636 75.0644L15.1585 51.7906L54.2303 59.6722L32.1795 26.4771L51.9553 13.3404L74.0061 46.5355L81.8877 7.46374L105.162 12.1586L97.2799 51.2304L130.475 29.1796L143.612 48.9554Z" fill="url(#paint0_linear_3711_834)"/>
</g>
<defs>
<filter id="filter0_f_3711_834" x="0.463867" y="-2.53625" width="159.024" height="159.025" filterUnits="userSpaceOnUse" color-interpolation-filters="sRGB">
<feFlood flood-opacity="0" result="BackgroundImageFix"/>
<feBlend mode="normal" in="SourceGraphic" in2="BackgroundImageFix" result="shape"/>
<feGaussianBlur stdDeviation="5" result="effect1_foregroundBlur_3711_834"/>
</filter>
<linearGradient id="paint0_linear_3711_834" x1="42.0674" y1="19.9087" x2="117.885" y2="134.043" gradientUnits="userSpaceOnUse">
<stop stop-color="white" stop-opacity="0.28"/>
<stop offset="1" stop-color="white" stop-opacity="0"/>
</linearGradient>
</defs>
</svg>
