<svg width="28" height="28" viewBox="0 0 28 28" fill="none" xmlns="http://www.w3.org/2000/svg">
<path d="M24.1591 0.666992H3.8416C2.09112 0.666992 0.666992 2.09112 0.666992 3.8416V24.1591C0.666992 25.9095 2.09112 27.3337 3.8416 27.3337H24.1591C25.9095 27.3337 27.3337 25.9095 27.3337 24.1591V3.8416C27.3337 2.09112 25.9095 0.666992 24.1591 0.666992ZM21.6232 12.3006C21.4791 12.314 21.333 12.3229 21.1851 12.3229C19.5197 12.3229 18.0562 11.4664 17.2048 10.1718C17.2048 13.5679 17.2048 17.4321 17.2048 17.4968C17.2048 20.4867 14.7806 22.9108 11.7908 22.9108C8.80096 22.9108 6.37683 20.4867 6.37683 17.4968C6.37683 14.507 8.80096 12.0829 11.7908 12.0829C11.9038 12.0829 12.0143 12.093 12.1254 12.1V14.7679C12.0143 14.7546 11.9051 14.7343 11.7908 14.7343C10.2645 14.7343 9.02763 15.9711 9.02763 17.4975C9.02763 19.0238 10.2645 20.2606 11.7908 20.2606C13.3172 20.2606 14.6651 19.0581 14.6651 17.5318C14.6651 17.4714 14.6918 5.09112 14.6918 5.09112H17.2416C17.4816 7.37112 19.3222 9.17048 21.6232 9.33556V12.3006Z" fill="white"/>
</svg>
