<svg width="24" height="20" viewBox="0 0 24 20" fill="none" xmlns="http://www.w3.org/2000/svg">
<path d="M20.4942 3.53429C21.4466 2.93853 22.1591 2.00045 22.4989 0.895189C21.604 1.4508 20.625 1.84219 19.604 2.05244C18.1885 0.48557 15.9458 0.104266 14.1291 1.12159C12.3123 2.13891 11.3713 4.303 11.8318 6.40461C8.16633 6.21204 4.75125 4.40018 2.43643 1.4199C1.22837 3.60034 1.84571 6.3877 3.84723 7.78975C3.12346 7.7654 2.41574 7.56035 1.78308 7.19168C1.78308 7.21169 1.78308 7.2317 1.78308 7.25171C1.7835 9.52301 3.31326 11.4795 5.44075 11.9296C4.76942 12.1207 4.06523 12.1489 3.38192 12.0119C3.98024 13.9543 5.69099 15.2849 7.64088 15.3246C6.02593 16.651 4.03152 17.3703 1.97856 17.3668C1.61467 17.3673 1.25107 17.3454 0.889648 17.3012C2.97439 18.703 5.40078 19.4471 7.87885 19.4445C11.3264 19.4693 14.6397 18.047 17.0774 15.4959C19.5152 12.9447 20.8741 9.47754 20.8501 5.8699C20.8501 5.66313 20.8455 5.45747 20.8363 5.25293C21.7292 4.5777 22.4998 3.74122 23.1119 2.7828C22.2801 3.16862 21.3977 3.42192 20.4942 3.53429Z" fill="white"/>
</svg>
