<svg width="20" height="20" viewBox="0 0 20 20" fill="none" xmlns="http://www.w3.org/2000/svg">
<path d="M16.37 5.15047C17.0842 4.70366 17.6186 4.00009 17.8734 3.17115C17.2023 3.58786 16.468 3.8814 15.7023 4.03908C14.6406 2.86393 12.9586 2.57796 11.5961 3.34095C10.2335 4.10394 9.52776 5.727 9.87315 7.30322C7.12401 7.15879 4.56271 5.79989 2.82659 3.56468C1.92054 5.20001 2.38355 7.29053 3.88469 8.34207C3.34186 8.32381 2.81107 8.17002 2.33658 7.89351C2.33658 7.90852 2.33658 7.92353 2.33658 7.93854C2.33689 9.64202 3.48421 11.1094 5.07983 11.447C4.57633 11.5903 4.04819 11.6114 3.53571 11.5087C3.98444 12.9654 5.26751 13.9635 6.72993 13.9932C5.51871 14.988 4.02291 15.5275 2.48318 15.5248C2.21027 15.5252 1.93757 15.5088 1.6665 15.4756C3.23006 16.527 5.04985 17.0851 6.9084 17.0831C9.49409 17.1017 11.979 16.035 13.8073 14.1216C15.6357 12.2083 16.6548 9.60791 16.6369 6.90218C16.6369 6.74711 16.6334 6.59286 16.6265 6.43945C17.2961 5.93303 17.8741 5.30567 18.3332 4.58686C17.7093 4.87622 17.0476 5.0662 16.37 5.15047Z" fill="white"/>
</svg>
