<svg width="20" height="16" viewBox="0 0 20 16" fill="none" xmlns="http://www.w3.org/2000/svg">
<path d="M19.4417 3.13889C19.2568 2.12073 18.3759 1.37927 17.3536 1.14778C15.8238 0.824072 12.9926 0.59259 9.92931 0.59259C6.86786 0.59259 3.9913 0.824072 2.45967 1.14778C1.43919 1.37927 0.556462 2.07371 0.371579 3.13889C0.184883 4.29629 0 5.91666 0 8C0 10.0833 0.184883 11.7037 0.416893 12.8611C0.603589 13.8793 1.4845 14.6207 2.50499 14.8522C4.12906 15.1759 6.91318 15.4074 9.97644 15.4074C13.0397 15.4074 15.8238 15.1759 17.4479 14.8522C18.4684 14.6207 19.3493 13.9263 19.536 12.8611C19.7209 11.7037 19.9529 10.0363 20 8C19.9057 5.91666 19.6737 4.29629 19.4417 3.13889ZM7.42432 11.2407V4.75926L13.085 8L7.42432 11.2407Z" fill="white"/>
</svg>
