<svg width="28" height="20" viewBox="0 0 28 20" fill="none" xmlns="http://www.w3.org/2000/svg">
<path d="M26.5893 3.39506C26.3428 2.03752 25.1682 1.0489 23.8052 0.740258C21.7654 0.308642 17.9904 0 13.9061 0C9.82414 0 5.98873 0.308642 3.94655 0.740258C2.58591 1.0489 1.40894 1.97483 1.16243 3.39506C0.913503 4.93827 0.666992 7.09877 0.666992 9.87654C0.666992 12.6543 0.913503 14.8148 1.22285 16.358C1.47178 17.7156 2.64633 18.7042 4.00697 19.0128C6.1724 19.4444 9.88456 19.7531 13.9689 19.7531C18.0533 19.7531 21.7654 19.4444 23.9308 19.0128C25.2915 18.7042 26.466 17.7783 26.715 16.358C26.9615 14.8148 27.2708 12.5916 27.3337 9.87654C27.208 7.09877 26.8986 4.93827 26.5893 3.39506ZM10.5661 14.1975V5.55556L18.1137 9.87654L10.5661 14.1975Z" fill="white"/>
</svg>
